<svg width="24" height="24" viewBox="0 0 24 24" fill="none" xmlns="http://www.w3.org/2000/svg">
<mask id="mask0_2233_3611" style="mask-type:luminance" maskUnits="userSpaceOnUse" x="0" y="0" width="24" height="24">
<path d="M11.9167 22.8333C13.3505 22.8351 14.7706 22.5535 16.0953 22.0048C17.42 21.4561 18.6232 20.651 19.6358 19.6358C20.651 18.6232 21.4561 17.42 22.0048 16.0953C22.5535 14.7706 22.8351 13.3505 22.8333 11.9167C22.8351 10.4828 22.5535 9.06275 22.0048 7.73804C21.4561 6.41334 20.651 5.21011 19.6358 4.1975C18.6232 3.18234 17.42 2.37727 16.0953 1.82854C14.7706 1.27981 13.3505 0.99824 11.9167 1.00001C10.4828 0.99824 9.06275 1.27981 7.73804 1.82854C6.41334 2.37727 5.21011 3.18234 4.1975 4.1975C3.18234 5.21011 2.37727 6.41334 1.82854 7.73804C1.27981 9.06275 0.99824 10.4828 1.00001 11.9167C0.99824 13.3505 1.27981 14.7706 1.82854 16.0953C2.37727 17.42 3.18234 18.6232 4.1975 19.6358C5.21011 20.651 6.41334 21.4561 7.73804 22.0048C9.06275 22.5535 10.4828 22.8351 11.9167 22.8333Z" fill="white" stroke="white" stroke-width="2" stroke-linejoin="round"/>
<path d="M7.5498 11.9167L10.8248 15.1917L17.3748 8.64172" stroke="black" stroke-width="2" stroke-linecap="round" stroke-linejoin="round"/>
</mask>
<g mask="url(#mask0_2233_3611)">
<path d="M-1.18311 -1.18335H25.0169V25.0167H-1.18311V-1.18335Z" fill="#0AA2EB"/>
</g>
</svg>
