<svg width="22" height="22" viewBox="0 0 22 22" fill="none" xmlns="http://www.w3.org/2000/svg">
<path fill-rule="evenodd" clip-rule="evenodd" d="M15.5113 2.60866C15.3293 2.31777 15.0611 2.09088 14.744 1.95957C14.427 1.82826 14.0769 1.79906 13.7425 1.87604L11.369 2.42121C11.1258 2.47712 10.873 2.47712 10.6298 2.42121L8.25637 1.87604C7.92196 1.79906 7.57186 1.82826 7.25482 1.95957C6.93778 2.09088 6.66956 2.31777 6.48751 2.60866L5.19387 4.67321C5.06187 4.88441 4.88366 5.06262 4.67245 5.19595L2.60791 6.48959C2.31752 6.67148 2.09096 6.93926 1.95968 7.25576C1.8284 7.57226 1.7989 7.92178 1.87528 8.2558L2.42046 10.6319C2.47617 10.8747 2.47617 11.127 2.42046 11.3698L1.87528 13.7445C1.7986 14.0788 1.82795 14.4286 1.95925 14.7453C2.09055 15.0621 2.31727 15.3301 2.60791 15.5121L4.67245 16.8057C4.88366 16.9377 5.06187 17.1159 5.19519 17.3271L6.48883 19.3917C6.86109 19.987 7.57127 20.2814 8.25637 20.1243L10.6298 19.5791C10.873 19.5232 11.1258 19.5232 11.369 19.5791L13.7438 20.1243C14.078 20.201 14.4278 20.1716 14.7446 20.0403C15.0614 19.909 15.3294 19.6823 15.5113 19.3917L16.805 17.3271C16.937 17.1159 17.1152 16.9377 17.3264 16.8057L19.3923 15.5121C19.6829 15.3298 19.9095 15.0616 20.0406 14.7445C20.1717 14.4275 20.2007 14.0775 20.1236 13.7432L19.5797 11.3698C19.5238 11.1265 19.5238 10.8738 19.5797 10.6306L20.1249 8.2558C20.2017 7.92172 20.1725 7.57201 20.0415 7.25525C19.9104 6.9385 19.684 6.67042 19.3936 6.48827L17.3277 5.19463C17.1168 5.06238 16.9385 4.88412 16.8063 4.67321L15.5113 2.60866ZM14.8473 8.05648C14.929 7.90634 14.9492 7.73039 14.9038 7.56565C14.8583 7.4009 14.7508 7.26021 14.6037 7.17316C14.4566 7.08612 14.2815 7.05951 14.1152 7.09894C13.9489 7.13837 13.8044 7.24076 13.7121 7.38457L10.2602 13.2271L8.17585 11.2312C8.11401 11.1677 8.04002 11.1173 7.95829 11.083C7.87656 11.0487 7.78876 11.0313 7.70014 11.0317C7.61151 11.032 7.52387 11.0503 7.44244 11.0853C7.36101 11.1203 7.28747 11.1713 7.22619 11.2353C7.16491 11.2993 7.11715 11.3751 7.08576 11.4579C7.05438 11.5408 7.04001 11.6292 7.04351 11.7177C7.04701 11.8063 7.06831 11.8933 7.10614 11.9734C7.14397 12.0536 7.19756 12.1253 7.2637 12.1843L9.94867 14.757C10.0205 14.8257 10.107 14.8773 10.2016 14.9079C10.2962 14.9385 10.3965 14.9474 10.495 14.9338C10.5935 14.9202 10.6876 14.8846 10.7704 14.8295C10.8532 14.7744 10.9224 14.7014 10.973 14.6158L14.8473 8.05648Z" fill="#0BB0FF"/>
</svg>
