<svg width="18" height="18" viewBox="0 0 18 18" fill="none" xmlns="http://www.w3.org/2000/svg">
<path d="M6.0751 8.9999C6.85086 8.9999 7.59484 8.69173 8.14338 8.14319C8.69193 7.59465 9.0001 6.85066 9.0001 6.0749C9.0001 5.29914 8.69193 4.55516 8.14338 4.00661C7.59484 3.45807 6.85086 3.1499 6.0751 3.1499C5.29934 3.1499 4.55535 3.45807 4.00681 4.00661C3.45827 4.55516 3.1501 5.29914 3.1501 6.0749C3.1501 6.85066 3.45827 7.59465 4.00681 8.14319C4.55535 8.69173 5.29934 8.9999 6.0751 8.9999ZM11.1934 13.6304C11.6704 13.8257 12.277 13.9499 13.0492 13.9499C16.6492 13.9499 16.6492 11.2499 16.6492 11.2499C16.6492 10.892 16.5071 10.5488 16.2541 10.2956C16.0011 10.0425 15.658 9.90014 15.3001 9.8999H11.1349C11.4886 10.3283 11.701 10.8764 11.701 11.4749V11.7953C11.6991 11.8711 11.694 11.9468 11.6857 12.0221C11.6244 12.5843 11.4568 13.1299 11.1934 13.6304ZM15.3001 6.7499C15.3001 7.34664 15.063 7.91894 14.6411 8.34089C14.2191 8.76285 13.6468 8.9999 13.0501 8.9999C12.4534 8.9999 11.8811 8.76285 11.4591 8.34089C11.0372 7.91894 10.8001 7.34664 10.8001 6.7499C10.8001 6.15317 11.0372 5.58087 11.4591 5.15891C11.8811 4.73696 12.4534 4.4999 13.0501 4.4999C13.6468 4.4999 14.2191 4.73696 14.6411 5.15891C15.063 5.58087 15.3001 6.15317 15.3001 6.7499ZM1.3501 11.6999C1.3501 11.2225 1.53974 10.7647 1.87731 10.4271C2.21487 10.0895 2.67271 9.8999 3.1501 9.8999H9.0001C9.47749 9.8999 9.93532 10.0895 10.2729 10.4271C10.6105 10.7647 10.8001 11.2225 10.8001 11.6999C10.8001 11.6999 10.8001 15.2999 6.0751 15.2999C1.3501 15.2999 1.3501 11.6999 1.3501 11.6999Z" fill="#838383"/>
</svg>
