<svg width="20" height="20" viewBox="0 0 20 20" fill="none" xmlns="http://www.w3.org/2000/svg">
<path d="M4.00243 9.42305C3.99467 9.33585 4.00557 9.24802 4.03443 9.16515C4.0633 9.08227 4.1095 9.00616 4.17011 8.94164C4.23072 8.87711 4.30441 8.82559 4.3865 8.79034C4.4686 8.75508 4.5573 8.73686 4.647 8.73684H5.88275C6.05438 8.73684 6.21899 8.80338 6.34036 8.92183C6.46172 9.04027 6.5299 9.20092 6.5299 9.36842V15.3684C6.5299 15.5359 6.46172 15.6966 6.34036 15.815C6.21899 15.9335 6.05438 16 5.88275 16H5.18187C5.0199 16 4.8638 15.9408 4.7444 15.834C4.625 15.7272 4.55099 15.5805 4.53698 15.4231L4.00243 9.42305ZM8.47138 9.17105C8.47138 8.90705 8.63964 8.67084 8.88394 8.55842C9.41753 8.31274 10.3265 7.81916 10.7364 7.15189C11.2648 6.29168 11.3645 4.73768 11.3807 4.38179C11.3829 4.33189 11.3817 4.282 11.3884 4.23274C11.4761 3.616 12.6957 4.33631 13.1633 5.098C13.4173 5.51105 13.4496 6.05389 13.4231 6.478C13.3943 6.93147 13.2581 7.36947 13.1245 7.80463L12.8397 8.7321H16.3528C16.4528 8.7321 16.5514 8.7547 16.641 8.79815C16.7305 8.84159 16.8085 8.90469 16.8688 8.98249C16.9292 9.06029 16.9702 9.15069 16.9888 9.24657C17.0073 9.34246 17.0028 9.44124 16.9757 9.53516L15.2381 15.5402C15.1997 15.6727 15.1181 15.7892 15.0056 15.8722C14.8931 15.9552 14.7559 16.0001 14.6149 16H9.11854C8.9469 16 8.78229 15.9335 8.66093 15.815C8.53956 15.6966 8.47138 15.5359 8.47138 15.3684V9.17105Z" fill="#838383" stroke="#838383" stroke-width="2" stroke-linecap="round" stroke-linejoin="round"/>
</svg>
