<svg width="20" height="20" viewBox="0 0 20 20" fill="none" xmlns="http://www.w3.org/2000/svg">
<path fill-rule="evenodd" clip-rule="evenodd" d="M3 8.01569C3 6.2602 3 5.38245 3.33911 4.7116C3.63738 4.12178 4.1133 3.64223 4.69867 3.34169C5.36444 3 6.23556 3 7.97778 3H12.0222C13.7644 3 14.6356 3 15.3013 3.34169C15.8867 3.64223 16.3626 4.12178 16.6609 4.7116C17 5.38245 17 6.2602 17 8.01569V8.95613C17 10.7116 17 11.5894 16.6609 12.2602C16.3626 12.85 15.8867 13.3296 15.3013 13.6301C14.6356 13.9718 13.7644 13.9718 12.0222 13.9718H6.43311C6.22685 13.9719 6.02905 14.0545 5.88322 14.2014L4.32767 15.7688C3.83767 16.2626 3 15.913 3 15.2148V8.01569ZM7.66667 6.1348C7.46039 6.1348 7.26256 6.21737 7.11669 6.36434C6.97083 6.51132 6.88889 6.71065 6.88889 6.9185C6.88889 7.12636 6.97083 7.32569 7.11669 7.47267C7.26256 7.61964 7.46039 7.70221 7.66667 7.70221H12.3333C12.5396 7.70221 12.7374 7.61964 12.8833 7.47267C13.0292 7.32569 13.1111 7.12636 13.1111 6.9185C13.1111 6.71065 13.0292 6.51132 12.8833 6.36434C12.7374 6.21737 12.5396 6.1348 12.3333 6.1348H7.66667ZM7.66667 9.26961C7.46039 9.26961 7.26256 9.35218 7.11669 9.49915C6.97083 9.64612 6.88889 9.84546 6.88889 10.0533C6.88889 10.2612 6.97083 10.4605 7.11669 10.6075C7.26256 10.7544 7.46039 10.837 7.66667 10.837H10C10.2063 10.837 10.4041 10.7544 10.55 10.6075C10.6958 10.4605 10.7778 10.2612 10.7778 10.0533C10.7778 9.84546 10.6958 9.64612 10.55 9.49915C10.4041 9.35218 10.2063 9.26961 10 9.26961H7.66667Z" fill="#838383"/>
</svg>
