<svg width="13" height="17" viewBox="0 0 13 17" fill="none" xmlns="http://www.w3.org/2000/svg">
<path d="M1.4719 16.4009C1.06385 16.4009 0.716519 16.2576 0.429911 15.9708C0.143304 15.6841 0 15.337 0 14.9294V6.9385C0 6.53151 0.143304 6.18436 0.429911 5.89704C0.716519 5.61033 1.06385 5.46697 1.4719 5.46697H2.73249V3.64465C2.73249 2.62961 3.08619 1.76856 3.7936 1.0615C4.50041 0.353834 5.36114 0 6.3758 0C7.39047 0 8.2515 0.353834 8.95891 1.0615C9.66632 1.76917 10.0197 2.63022 10.0191 3.64465V5.46697H11.2806C11.6875 5.46697 12.0345 5.61033 12.3217 5.89704C12.6083 6.18375 12.7516 6.53121 12.7516 6.93941V14.9294C12.7516 15.3364 12.6083 15.6835 12.3217 15.9708C12.0351 16.2576 11.6881 16.4009 11.2806 16.4009H1.4719ZM1.4719 15.4897H11.2806C11.444 15.4897 11.5782 15.4372 11.6832 15.3321C11.7883 15.227 11.8408 15.0928 11.8408 14.9294V6.9385C11.8408 6.77509 11.7883 6.64085 11.6832 6.53576C11.5782 6.43068 11.444 6.37813 11.2806 6.37813H1.47099C1.30765 6.37813 1.17345 6.43068 1.0684 6.53576C0.963353 6.64085 0.910829 6.7754 0.910829 6.93941V14.9294C0.910829 15.0928 0.963353 15.227 1.0684 15.3321C1.17345 15.4372 1.30795 15.4897 1.4719 15.4897ZM6.3758 12.3007C6.76017 12.3007 7.08382 12.1689 7.34675 11.9052C7.61028 11.6422 7.74205 11.3185 7.74205 10.9339C7.74205 10.5494 7.61028 10.2257 7.34675 9.96264C7.08321 9.69962 6.75957 9.56781 6.3758 9.5672C5.99204 9.56659 5.66839 9.69841 5.40486 9.96264C5.14133 10.2257 5.00956 10.5494 5.00956 10.9339C5.00956 11.3185 5.14133 11.6422 5.40486 11.9052C5.66779 12.1689 5.99143 12.3007 6.3758 12.3007ZM3.64332 5.46697H9.10829V3.64465C9.10829 2.88535 8.84263 2.23994 8.31131 1.70843C7.78 1.17692 7.13483 0.911162 6.3758 0.911162C5.61678 0.911162 4.97161 1.17692 4.44029 1.70843C3.90897 2.23994 3.64332 2.88535 3.64332 3.64465V5.46697Z" fill="#CFCFCF"/>
</svg>
