<svg width="27" height="27" viewBox="0 0 27 27" fill="none" xmlns="http://www.w3.org/2000/svg">
<path d="M13.1004 2.18335C12.0208 2.18335 10.9655 2.50348 10.0679 3.10324C9.17029 3.70301 8.47068 4.55549 8.05755 5.55287C7.64442 6.55025 7.53633 7.64774 7.74694 8.70655C7.95755 9.76536 8.4774 10.7379 9.24077 11.5013C10.0041 12.2647 10.9767 12.7845 12.0355 12.9951C13.0943 13.2057 14.1918 13.0977 15.1892 12.6845C16.1866 12.2714 17.0391 11.5718 17.6388 10.6742C18.2386 9.77655 18.5587 8.72124 18.5587 7.64168C18.5587 6.19404 17.9837 4.80569 16.96 3.78206C15.9364 2.75842 14.548 2.18335 13.1004 2.18335ZM13.1004 10.9167C12.4527 10.9167 11.8195 10.7246 11.2809 10.3647C10.7423 10.0049 10.3226 9.4934 10.0747 8.89497C9.82681 8.29654 9.76195 7.63805 9.88832 7.00276C10.0147 6.36748 10.3266 5.78393 10.7846 5.32591C11.2426 4.86789 11.8262 4.55598 12.4615 4.42961C13.0968 4.30325 13.7553 4.3681 14.3537 4.61598C14.9521 4.86386 15.4636 5.28362 15.8235 5.82219C16.1833 6.36076 16.3754 6.99395 16.3754 7.64168C16.3754 8.51027 16.0303 9.34328 15.4162 9.95746C14.802 10.5716 13.969 10.9167 13.1004 10.9167ZM22.9254 22.925V21.8334C22.9254 19.8067 22.1203 17.863 20.6872 16.4299C19.2541 14.9968 17.3104 14.1917 15.2837 14.1917H10.9171C8.89036 14.1917 6.94667 14.9968 5.51358 16.4299C4.08049 17.863 3.27539 19.8067 3.27539 21.8334V22.925H5.45872V21.8334C5.45872 20.3857 6.0338 18.9974 7.05743 17.9737C8.08107 16.9501 9.46942 16.375 10.9171 16.375H15.2837C16.7314 16.375 18.1197 16.9501 19.1433 17.9737C20.167 18.9974 20.7421 20.3857 20.7421 21.8334V22.925H22.9254Z" fill="black"/>
</svg>
