<svg width="27" height="27" viewBox="0 0 27 27" fill="none" xmlns="http://www.w3.org/2000/svg">
<path d="M18.7498 13.0999L15.584 9.9341C15.3656 9.71576 15.2608 9.46104 15.2696 9.16993C15.2783 8.87882 15.3922 8.6241 15.6113 8.40576C15.8296 8.20562 16.0843 8.10082 16.3754 8.09136C16.6665 8.0819 16.9213 8.1867 17.1396 8.40576L22.1613 13.4274C22.3796 13.6458 22.4888 13.9005 22.4888 14.1916C22.4888 14.4827 22.3796 14.7374 22.1613 14.9558L17.1396 19.9774C16.9395 20.1776 16.6891 20.2776 16.3885 20.2776C16.088 20.2776 15.8289 20.1776 15.6113 19.9774C15.3929 19.7591 15.2838 19.4996 15.2838 19.1991C15.2838 18.8985 15.3929 18.6394 15.6113 18.4218L18.7498 15.2833H8.73377C7.22363 15.2833 5.93619 14.7509 4.87145 13.6862C3.80671 12.6214 3.27471 11.3343 3.27543 9.82493V6.54993C3.27543 6.24062 3.38024 5.98117 3.58984 5.77157C3.79943 5.56197 4.05853 5.45753 4.3671 5.45826C4.67568 5.45899 4.93477 5.56379 5.14437 5.77266C5.35397 5.98153 5.45877 6.24062 5.45877 6.54993V9.82493C5.45877 10.7347 5.77717 11.5079 6.41398 12.1447C7.05078 12.7815 7.82405 13.0999 8.73377 13.0999H18.7498Z" fill="#CFCFCF"/>
</svg>
