<svg width="37" height="37" viewBox="0 0 37 37" fill="none" xmlns="http://www.w3.org/2000/svg">
<circle cx="18.5" cy="18.5" r="18.5" fill="#FFDFDF"/>
<path d="M8.97494 26.9249C8.7748 26.9249 8.59285 26.8751 8.4291 26.7753C8.26535 26.6756 8.13799 26.5435 8.04702 26.3791C7.95605 26.2146 7.90619 26.037 7.89746 25.8463C7.88873 25.6557 7.93858 25.4693 8.04702 25.2874L18.1449 7.82074C18.2541 7.63879 18.3953 7.50233 18.5685 7.41136C18.7417 7.32039 18.9189 7.2749 19.1001 7.2749C19.2814 7.2749 19.4589 7.32039 19.6329 7.41136C19.8068 7.50233 19.9476 7.63879 20.0554 7.82074L30.1533 25.2874C30.2624 25.4693 30.3127 25.656 30.3039 25.8474C30.2952 26.0388 30.245 26.216 30.1533 26.3791C30.0616 26.5421 29.9342 26.6742 29.7712 26.7753C29.6082 26.8765 29.4262 26.9264 29.2254 26.9249H8.97494ZM10.8581 24.7416H27.3422L19.1001 10.5499L10.8581 24.7416ZM19.1001 23.6499C19.4095 23.6499 19.6689 23.5451 19.8785 23.3355C20.0881 23.1259 20.1925 22.8668 20.1918 22.5582C20.1911 22.2497 20.0863 21.9906 19.8774 21.781C19.6685 21.5714 19.4095 21.4666 19.1001 21.4666C18.7908 21.4666 18.5318 21.5714 18.3229 21.781C18.114 21.9906 18.0092 22.2497 18.0085 22.5582C18.0078 22.8668 18.1126 23.1263 18.3229 23.3366C18.5332 23.5469 18.7923 23.6514 19.1001 23.6499ZM19.1001 20.3749C19.4095 20.3749 19.6689 20.2701 19.8785 20.0605C20.0881 19.8509 20.1925 19.5918 20.1918 19.2832V16.0082C20.1918 15.6989 20.087 15.4398 19.8774 15.231C19.6678 15.0221 19.4087 14.9173 19.1001 14.9166C18.7916 14.9158 18.5325 15.0206 18.3229 15.231C18.1133 15.4413 18.0085 15.7004 18.0085 16.0082V19.2832C18.0085 19.5925 18.1133 19.852 18.3229 20.0616C18.5325 20.2712 18.7916 20.3756 19.1001 20.3749Z" fill="#FF2B2B"/>
</svg>
