<svg width="67" height="66" viewBox="0 0 67 66" fill="none" xmlns="http://www.w3.org/2000/svg">
<path d="M7.60748 57.75C7.09568 57.75 6.6304 57.6244 6.21165 57.3733C5.7929 57.1221 5.4672 56.7893 5.23456 56.375C5.00193 55.9607 4.87444 55.5133 4.85211 55.033C4.82977 54.5527 4.95726 54.0833 5.23456 53.625L31.0575 9.625C31.3366 9.16667 31.6977 8.82292 32.1406 8.59375C32.5836 8.36458 33.0368 8.25 33.5002 8.25C33.9636 8.25 34.4177 8.36458 34.8625 8.59375C35.3073 8.82292 35.6675 9.16667 35.9429 9.625L61.7658 53.625C62.045 54.0833 62.1734 54.5536 62.1511 55.0358C62.1287 55.5179 62.0003 55.9643 61.7658 56.375C61.5313 56.7857 61.2056 57.1184 60.7887 57.3733C60.3718 57.6281 59.9066 57.7537 59.3929 57.75H7.60748ZM12.4231 52.25H54.5773L33.5002 16.5L12.4231 52.25ZM33.5002 49.5C34.2912 49.5 34.9547 49.236 35.4907 48.708C36.0267 48.18 36.2937 47.5273 36.2919 46.75C36.29 45.9727 36.022 45.32 35.4879 44.792C34.9537 44.264 34.2912 44 33.5002 44C32.7092 44 32.0467 44.264 31.5125 44.792C30.9784 45.32 30.7104 45.9727 30.7085 46.75C30.7067 47.5273 30.9747 48.1809 31.5125 48.7107C32.0504 49.2406 32.7129 49.5037 33.5002 49.5ZM33.5002 41.25C34.2912 41.25 34.9547 40.986 35.4907 40.458C36.0267 39.93 36.2937 39.2773 36.2919 38.5V30.25C36.2919 29.4708 36.0239 28.8182 35.4879 28.292C34.9519 27.7658 34.2893 27.5018 33.5002 27.5C32.7111 27.4982 32.0485 27.7622 31.5125 28.292C30.9765 28.8218 30.7085 29.4745 30.7085 30.25V38.5C30.7085 39.2792 30.9765 39.9328 31.5125 40.4608C32.0485 40.9888 32.7111 41.2518 33.5002 41.25Z" fill="#FF2B2B"/>
</svg>
