<svg width="15" height="14" viewBox="0 0 15 14" fill="none" xmlns="http://www.w3.org/2000/svg">
<path d="M1.00243 6.42305C0.994667 6.33585 1.00557 6.24802 1.03443 6.16515C1.0633 6.08227 1.1095 6.00616 1.17011 5.94164C1.23072 5.87711 1.30441 5.82559 1.3865 5.79034C1.4686 5.75508 1.5573 5.73686 1.647 5.73684H2.88275C3.05438 5.73684 3.21899 5.80338 3.34036 5.92183C3.46172 6.04027 3.5299 6.20092 3.5299 6.36842V12.3684C3.5299 12.5359 3.46172 12.6966 3.34036 12.815C3.21899 12.9335 3.05438 13 2.88275 13H2.18187C2.0199 13 1.8638 12.9408 1.7444 12.834C1.625 12.7272 1.55099 12.5805 1.53698 12.4231L1.00243 6.42305ZM5.47138 6.17105C5.47138 5.90705 5.63964 5.67084 5.88394 5.55842C6.41753 5.31274 7.32646 4.81916 7.73643 4.15189C8.26484 3.29168 8.3645 1.73768 8.38068 1.38179C8.38295 1.33189 8.38165 1.282 8.38845 1.23274C8.47614 0.615998 9.69571 1.33631 10.1633 2.098C10.4173 2.51105 10.4496 3.05389 10.4231 3.478C10.3943 3.93147 10.2581 4.36947 10.1245 4.80463L9.8397 5.7321H13.3528C13.4528 5.7321 13.5514 5.7547 13.641 5.79815C13.7305 5.84159 13.8085 5.90469 13.8688 5.98249C13.9292 6.06029 13.9702 6.15069 13.9888 6.24657C14.0073 6.34246 14.0028 6.44124 13.9757 6.53516L12.2381 12.5402C12.1997 12.6727 12.1181 12.7892 12.0056 12.8722C11.8931 12.9552 11.7559 13.0001 11.6149 13H6.11854C5.9469 13 5.78229 12.9335 5.66093 12.815C5.53956 12.6966 5.47138 12.5359 5.47138 12.3684V6.17105Z" fill="white" stroke="white" stroke-width="2" stroke-linecap="round" stroke-linejoin="round"/>
</svg>
