<svg width="16" height="18" viewBox="0 0 16 18" fill="none" xmlns="http://www.w3.org/2000/svg">
<path d="M0.75 17.1509V16.1259C0.75 14.2228 1.4875 12.3977 2.80025 11.0521C4.11301 9.70643 5.89348 8.95046 7.75 8.95046M7.75 8.95046C9.60652 8.95046 11.387 9.70643 12.6997 11.0521C14.0125 12.3977 14.75 14.2228 14.75 16.1259V17.1509M7.75 8.95046C8.81087 8.95046 9.82828 8.51847 10.5784 7.74953C11.3286 6.98059 11.75 5.93768 11.75 4.85023C11.75 3.76278 11.3286 2.71987 10.5784 1.95093C9.82828 1.18199 8.81087 0.75 7.75 0.75C6.68913 0.75 5.67172 1.18199 4.92157 1.95093C4.17143 2.71987 3.75 3.76278 3.75 4.85023C3.75 5.93768 4.17143 6.98059 4.92157 7.74953C5.67172 8.51847 6.68913 8.95046 7.75 8.95046Z" stroke="#CFCFCF" stroke-width="1.5" stroke-linecap="round" stroke-linejoin="round"/>
</svg>
