<svg width="12" height="12" viewBox="0 0 12 12" fill="none" xmlns="http://www.w3.org/2000/svg">
<path d="M7.14182 4.85848C6.93195 4.64854 6.68277 4.482 6.40852 4.36838C6.13428 4.25475 5.84033 4.19627 5.54348 4.19627C5.24663 4.19627 4.95269 4.25475 4.67844 4.36838C4.40419 4.482 4.15502 4.64854 3.94515 4.85848L1.66182 7.14248C1.238 7.56639 0.999938 8.14129 1 8.74072C1.00006 9.34015 1.23824 9.915 1.66215 10.3388C2.08605 10.7626 2.66096 11.0007 3.26038 11.0006C3.85981 11.0006 4.43467 10.7624 4.85848 10.3385L5.07248 10.1358M4.85848 7.14248C5.06835 7.35242 5.31753 7.51896 5.59177 7.63259C5.86602 7.74621 6.15996 7.80469 6.45682 7.80469C6.75367 7.80469 7.04761 7.74621 7.32186 7.63259C7.5961 7.51896 7.84528 7.35242 8.05515 7.14248L10.3378 4.85848C10.7617 4.43467 10.9999 3.85981 11 3.26038C11 2.66096 10.762 2.08605 10.3381 1.66215C9.91433 1.23824 9.33948 1.00006 8.74005 1C8.14062 0.999938 7.56572 1.238 7.14182 1.66182L6.45648 2.30248" stroke="#838383" stroke-width="2" stroke-linecap="round" stroke-linejoin="round"/>
</svg>
